<svg xmlns="http://www.w3.org/2000/svg" width="226.066" height="101" viewBox="0 0 226.066 101"><defs><style>.a,.b{fill:none;}.b{stroke:#fff;stroke-miterlimit:40;stroke-width:1.75px;}.c{fill:#fbce07;}.d,.f{fill:#dd1d21;}.d{fill-rule:evenodd;}.e,.h{isolation:isolate;}.g{fill:#003c88;}.h{mix-blend-mode:multiply;}</style></defs><g transform="translate(18885.73 22369)"><g transform="translate(-18885.73 -22369)"><rect class="a" width="101" height="101"/><path class="b" d="M57.712,83.526H44.885l-1.176-9.5-7.768-5.651a25.255,25.255,0,1,1,49.477,0l-7.768,5.651-1.2,9.5H63.626l-.713.534a3.777,3.777,0,0,1-4.454,0Z" transform="translate(-10.18 -10.931)"/><path class="c" d="M57.712,83.526H44.885l-1.176-9.5-7.768-5.651a25.255,25.255,0,1,1,49.477,0l-7.768,5.651-1.2,9.5H63.626l-.713.534a3.777,3.777,0,0,1-4.454,0Z" transform="translate(-10.18 -10.931)"/><path class="d" d="M57.712,83.526H44.885l-1.176-9.5-7.768-5.651a25.255,25.255,0,1,1,49.477,0l-7.768,5.651-1.2,9.5H63.626l-.713.534a3.777,3.777,0,0,1-4.454,0Zm.4-4.418H48.8l-.941-7.525L40.188,66a10.625,10.625,0,0,1-.342-2.679,10.8,10.8,0,0,1,.934-4.375L54.362,72.687l-13.2-16.3a10.761,10.761,0,0,1,3.3-5.466L56.294,71.347,45.811,48.978a10.689,10.689,0,0,1,5.409-3.8l7.233,25.355L53.165,44.168a10.689,10.689,0,0,1,6.414-1.318l1.083,27.457L61.738,42.85a10.739,10.739,0,0,1,6.414,1.318L62.914,70.535,70.147,45.18a10.689,10.689,0,0,1,5.409,3.8l-10.5,22.369L76.9,50.917a10.689,10.689,0,0,1,3.3,5.466L67,72.687,80.58,58.948a10.8,10.8,0,0,1,.934,4.375A10.625,10.625,0,0,1,81.171,66L73.5,71.583l-.941,7.525H63.249l-1.382,1a1.967,1.967,0,0,1-1.183.392,1.988,1.988,0,0,1-1.19-.392Z" transform="translate(-10.18 -10.931)"/></g><g class="e" transform="translate(-18808.338 -22353.443)"><path class="f" d="M41.572,20.837a4.72,4.72,0,0,0-1.308-.79,4.011,4.011,0,0,0-1.477-.288,2.541,2.541,0,0,0-.613.081,2.3,2.3,0,0,0-.584.259,1.721,1.721,0,0,0-.451.392,1.071,1.071,0,0,0-.17.6.982.982,0,0,0,.192.613,2.024,2.024,0,0,0,.473.428,2.733,2.733,0,0,0,.606.3c.214.081.421.148.606.207l1.079.325a10.718,10.718,0,0,1,1.573.613,5,5,0,0,1,1.278.872,3.863,3.863,0,0,1,.85,1.241,4.366,4.366,0,0,1,.31,1.721,8.178,8.178,0,0,1-.355,2.379,4.144,4.144,0,0,1-1.322,2,5.954,5.954,0,0,1-2.216,1.175,8.7,8.7,0,0,1-2.445.355,9.389,9.389,0,0,1-3.007-.488,10.386,10.386,0,0,1-2.711-1.367L33.7,28.054a9.4,9.4,0,0,0,1.721,1.189,4.24,4.24,0,0,0,2.031.495,2.763,2.763,0,0,0,.739-.1,2.3,2.3,0,0,0,.657-.288,1.588,1.588,0,0,0,.48-.51,1.477,1.477,0,0,0,.185-.739,1.1,1.1,0,0,0-.273-.739,2.394,2.394,0,0,0-.672-.517,4.328,4.328,0,0,0-.835-.347l-.79-.236c-.665-.185-1.263-.384-1.8-.591a4.816,4.816,0,0,1-1.389-.813,3.3,3.3,0,0,1-.9-1.248,5.171,5.171,0,0,1-.31-1.943,5.791,5.791,0,0,1,.421-2.216A5.068,5.068,0,0,1,34.185,17.7a5.215,5.215,0,0,1,1.766-1.1,6.338,6.338,0,0,1,2.26-.384,8.775,8.775,0,0,1,1.278.1,12.971,12.971,0,0,1,1.337.266,13.334,13.334,0,0,1,1.3.421,10.829,10.829,0,0,1,1.145.532Z" transform="translate(-8.33 -4.238)"/><path class="f" d="M54.6,14.58v8.244h0a4.617,4.617,0,0,1,1.537-1.337,4.329,4.329,0,0,1,2-.436,4.646,4.646,0,0,1,1.839.34,3.472,3.472,0,0,1,1.293.946,4.055,4.055,0,0,1,.739,1.477,6.648,6.648,0,0,1,.259,1.906V32.5H58.4V26.813a8.2,8.2,0,0,0-.052-.946,2.622,2.622,0,0,0-.236-.857,1.477,1.477,0,0,0-.539-.6,1.684,1.684,0,0,0-.938-.229,1.81,1.81,0,0,0-1.61.827,2.423,2.423,0,0,0-.34.857,4.631,4.631,0,0,0-.081.946v5.681H50.66V14.58Z" transform="translate(-13.237 -3.81)"/><path class="f" d="M80.9,29.9H72.617a2.512,2.512,0,0,0,3.546,2.216,1.935,1.935,0,0,0,.79-.79h3.79a4.432,4.432,0,0,1-.79,1.692,4.588,4.588,0,0,1-1.315,1.189,6.087,6.087,0,0,1-1.662.7,7.808,7.808,0,0,1-1.854.222,8.126,8.126,0,0,1-2.563-.384,5.836,5.836,0,0,1-2.024-1.138A5.171,5.171,0,0,1,69.2,31.768a6.212,6.212,0,0,1-.488-2.526,6.434,6.434,0,0,1,.451-2.46A5.23,5.23,0,0,1,70.4,24.921a5.607,5.607,0,0,1,1.935-1.167,7.173,7.173,0,0,1,2.5-.414,7.092,7.092,0,0,1,2.563.436A5.237,5.237,0,0,1,79.3,25a5.371,5.371,0,0,1,1.189,1.935,7.454,7.454,0,0,1,.406,2.556Zm-3.642-2.26a2.009,2.009,0,0,0-.79-1.278,2.364,2.364,0,0,0-1.433-.473,2.63,2.63,0,0,0-1.477.443,2,2,0,0,0-.82,1.308Z" transform="translate(-17.953 -6.098)"/><path class="f" d="M91.42,32.494H87.49V14.58h3.93Z" transform="translate(-22.86 -3.81)"/><path class="f" d="M100.123,32.494H96.2V14.58h3.923Z" transform="translate(-25.136 -3.81)"/><path class="g" d="M43.136,70.022H37v-18.4H31.93V46.45h16.3v5.171h-5.1Z" transform="translate(-8.343 -12.137)"/><path class="g" d="M71.179,72.494H65.491V70.706h-.074a4.432,4.432,0,0,1-2.1,1.751,7.018,7.018,0,0,1-2.748.569,7.712,7.712,0,0,1-3.28-.694,7.978,7.978,0,0,1-2.563-1.862,8.392,8.392,0,0,1-1.677-2.733,9.123,9.123,0,0,1-.591-3.287,9.02,9.02,0,0,1,.591-3.273A8.813,8.813,0,0,1,54.7,58.458,7.55,7.55,0,0,1,57.232,56.6,7.675,7.675,0,0,1,60.5,55.91a7.461,7.461,0,0,1,2.741.517,5.489,5.489,0,0,1,2.216,1.581V56.442h5.688ZM62.011,60.852a3.76,3.76,0,0,0-1.544.3,3.62,3.62,0,0,0-1.145.783,3.272,3.272,0,0,0-.739,1.145,3.849,3.849,0,0,0-.251,1.4,3.694,3.694,0,0,0,.975,2.578,4.085,4.085,0,0,0,5.415,0,3.694,3.694,0,0,0,.953-2.571,3.849,3.849,0,0,0-.251-1.4,3.383,3.383,0,0,0-.739-1.145,3.62,3.62,0,0,0-1.123-.79A3.8,3.8,0,0,0,62.011,60.852Z" transform="translate(-13.707 -14.608)"/><path class="g" d="M88.155,58.252h.066a4.669,4.669,0,0,1,2.113-1.766,6.774,6.774,0,0,1,2.733-.576,7.72,7.72,0,0,1,3.287.739,8.074,8.074,0,0,1,2.563,1.876,8.5,8.5,0,0,1,1.669,2.7,9.093,9.093,0,0,1,.6,3.28,8.931,8.931,0,0,1-.6,3.287,8.613,8.613,0,0,1-1.64,2.711,7.387,7.387,0,0,1-2.534,1.839,7.808,7.808,0,0,1-3.265.68,7.727,7.727,0,0,1-2.741-.5,5.385,5.385,0,0,1-2.216-1.566V80.5H82.46V56.442h5.7Zm3.472,2.6a3.738,3.738,0,0,0-1.544.3,3.538,3.538,0,0,0-1.145.783,3.272,3.272,0,0,0-.739,1.145,3.849,3.849,0,0,0-.251,1.4,3.694,3.694,0,0,0,.975,2.578,4.085,4.085,0,0,0,5.415,0,3.693,3.693,0,0,0,.953-2.571,4.011,4.011,0,0,0-.251-1.4,3.287,3.287,0,0,0-.739-1.145,3.509,3.509,0,0,0-1.1-.79,3.8,3.8,0,0,0-1.573-.3Z" transform="translate(-21.546 -14.609)"/><path class="g" d="M131.975,46.4V59.7c0,.739,0,1.477-.059,2.253a14.168,14.168,0,0,1-.3,2.216,8.628,8.628,0,0,1-.739,2.054,7.121,7.121,0,0,1-1.381,1.832,7.815,7.815,0,0,1-1.669,1.219,10.688,10.688,0,0,1-1.95.753,12.314,12.314,0,0,1-2.1.451,15.919,15.919,0,0,1-4.218,0,12.313,12.313,0,0,1-2.1-.451,10.473,10.473,0,0,1-1.928-.813,7.815,7.815,0,0,1-1.669-1.219,6.951,6.951,0,0,1-1.381-1.832,8.628,8.628,0,0,1-.739-2.054,12.557,12.557,0,0,1-.3-2.216c-.044-.739-.066-1.477-.066-2.253V46.34h6.131V58.824a18.564,18.564,0,0,0,.1,2.3,6.212,6.212,0,0,0,.5,2.061,3.369,3.369,0,0,0,1.248,1.477,5.06,5.06,0,0,0,4.632,0,3.369,3.369,0,0,0,1.248-1.477,6.213,6.213,0,0,0,.5-2.061c.066-.739.1-1.529.1-2.3V46.4Z" transform="translate(-29.102 -12.108)"/><path class="g" d="M149.581,58.252h.066a4.75,4.75,0,0,1,2.113-1.766,6.8,6.8,0,0,1,2.733-.576,7.7,7.7,0,0,1,3.287.739,7.993,7.993,0,0,1,2.563,1.876,8.65,8.65,0,0,1,1.662,2.741,9.086,9.086,0,0,1,.591,3.28,8.939,8.939,0,0,1-2.216,6,7.387,7.387,0,0,1-2.541,1.839,7.971,7.971,0,0,1-6.006.177,5.385,5.385,0,0,1-2.216-1.566V80.5H143.93V56.442h5.688Zm3.479,2.6a3.775,3.775,0,0,0-1.551.3,3.619,3.619,0,0,0-1.145.783,3.384,3.384,0,0,0-.739,1.145,3.849,3.849,0,0,0-.251,1.4,3.693,3.693,0,0,0,.975,2.578,4.085,4.085,0,0,0,5.452,0,3.693,3.693,0,0,0,.953-2.571,3.849,3.849,0,0,0-.251-1.4,3.272,3.272,0,0,0-.739-1.145,3.538,3.538,0,0,0-1.16-.79,3.738,3.738,0,0,0-1.544-.3Z" transform="translate(-37.607 -14.609)"/><g class="h"><rect class="a" width="148.673" height="81.665"/></g><path class="g" d="M172.212,54.024A2.436,2.436,0,1,1,170,51.852a2.216,2.216,0,0,1,2.216,2.172Zm-3.923,0a1.692,1.692,0,0,0,1.7,1.743,1.743,1.743,0,1,0,0-3.487,1.692,1.692,0,0,0-1.7,1.743Zm1.344,1.145h-.51V52.953a4.706,4.706,0,0,1,.842-.066,1.3,1.3,0,0,1,.739.163.591.591,0,0,1,.214.48.561.561,0,0,1-.451.5h0a.635.635,0,0,1,.4.532,1.522,1.522,0,0,0,.163.547h-.547a1.869,1.869,0,0,1-.177-.532c-.037-.244-.17-.347-.451-.347h-.236Zm0-1.241h.236c.281,0,.5-.089.5-.318s-.14-.332-.465-.332a1.027,1.027,0,0,0-.273,0Z" transform="translate(-43.757 -13.543)"/></g></g></svg>