<svg xmlns="http://www.w3.org/2000/svg" width="64" height="64" viewBox="0 0 64 64"><defs><style>.a,.b{fill:none;}.b{stroke:#fff;stroke-miterlimit:40;stroke-width:1.75px;}.c{fill:#fbce07;}.d{fill:#dd1d21;fill-rule:evenodd;}</style></defs><rect class="a" width="64" height="64"/><path class="b" d="M49.547,66.862H41.419l-.745-6.019-4.922-3.581a16,16,0,1,1,31.352,0l-4.922,3.581-.759,6.019H53.295l-.452.339a2.393,2.393,0,0,1-2.822,0Z" transform="translate(-19.427 -20.862)"/><path class="c" d="M49.547,66.862H41.419l-.745-6.019-4.922-3.581a16,16,0,1,1,31.352,0l-4.922,3.581-.759,6.019H53.295l-.452.339a2.393,2.393,0,0,1-2.822,0Z" transform="translate(-19.427 -20.862)"/><path class="d" d="M49.547,66.862H41.419l-.745-6.019-4.922-3.581a16,16,0,1,1,31.352,0l-4.922,3.581-.759,6.019H53.295l-.452.339a2.393,2.393,0,0,1-2.822,0Zm.253-2.8H43.9l-.6-4.769-4.859-3.536a6.733,6.733,0,0,1-.217-1.7,6.841,6.841,0,0,1,.592-2.773l8.607,8.706L39.057,49.662A6.819,6.819,0,0,1,41.148,46.2l7.5,12.946L42.006,44.971a6.773,6.773,0,0,1,3.427-2.407L50.016,58.63,46.666,41.922a6.773,6.773,0,0,1,4.064-.835l.686,17.4.682-17.4a6.805,6.805,0,0,1,4.064.835L52.843,58.63l4.583-16.067a6.773,6.773,0,0,1,3.427,2.407L54.2,59.145,61.707,46.2A6.773,6.773,0,0,1,63.8,49.662L55.431,59.994l8.607-8.706a6.841,6.841,0,0,1,.592,2.773,6.733,6.733,0,0,1-.217,1.7l-4.859,3.536-.6,4.769h-5.9l-.876.632a1.246,1.246,0,0,1-.75.248,1.26,1.26,0,0,1-.754-.248Z" transform="translate(-19.427 -20.862)"/></svg>